<?xml version="1.0" encoding="utf-8"?>
<!-- Generator: Adobe Illustrator 24.3.0, SVG Export Plug-In . SVG Version: 6.00 Build 0)  -->
<svg version="1.1" id="Calque_1" xmlns="http://www.w3.org/2000/svg" xmlns:xlink="http://www.w3.org/1999/xlink" x="0px" y="0px"
	 viewBox="0 0 432 432" style="enable-background:new 0 0 432 432;" xml:space="preserve">
<style type="text/css">
	.st0{fill:#C1272D;}
	.st1{fill:#4D4D4D;}
	.st2{fill:#C7B299;}
</style>
<g>
	<g>
		<g>
			<path d="M90.23,216.94c-1.15,0.03-2.25-0.3-3.32-0.76c-0.87-0.38-1.75-0.75-2.62-1.11c-0.26-0.11-0.52-0.2-0.78-0.29
				c-1.33-0.47-2.64-0.41-3.93,0.16c-0.81,0.36-1.59,0.75-2.39,1.12c-0.67,0.31-1.36,0.59-2.09,0.74c-1.77,0.37-3.47,0.13-5.06-0.69
				c-2.17-1.11-3.63-2.82-4.29-5.2c-0.28-1.03-0.3-2.06-0.05-3.09c0.36-1.53,1.08-2.85,2.29-3.88c0.42-0.36,0.85-0.72,1.28-1.08
				c1.3-1.07,2.43-2.28,3.42-3.64c0.74-1.01,1.49-2.01,2.28-2.98c0.5-0.61,1.05-1.18,1.62-1.72c0.91-0.85,1.98-1.44,3.16-1.83
				c1.43-0.48,2.87-0.49,4.3-0.01c1.32,0.44,2.5,1.11,3.48,2.1c0.65,0.66,1.26,1.36,1.84,2.08c0.7,0.87,1.35,1.77,2.01,2.66
				c0.87,1.18,1.88,2.23,3,3.18c0.5,0.42,1,0.83,1.49,1.26c1.53,1.34,2.28,3.06,2.43,5.06c0.05,0.68-0.06,1.34-0.24,1.99
				C97.03,214.63,93.52,216.98,90.23,216.94z"/>
			<path d="M70.03,183.64c0-1.46,0.18-2.48,0.6-3.45c0.25-0.58,0.58-1.11,1-1.57c1.28-1.42,3.14-1.88,4.94-1.25
				c0.82,0.29,1.53,0.76,2.15,1.37c1.25,1.22,1.99,2.72,2.33,4.41c0.3,1.48,0.26,2.95-0.25,4.38c-0.28,0.8-0.68,1.52-1.28,2.13
				c-1.35,1.37-2.95,1.75-4.78,1.17c-1.04-0.33-1.89-0.96-2.6-1.78C70.71,187.37,70.05,185.42,70.03,183.64z"/>
			<path d="M83.56,184.67c0.01-2.01,0.38-3.55,1.16-4.98c0.47-0.86,1.08-1.61,1.88-2.2c0.47-0.34,0.98-0.61,1.55-0.76
				c1.24-0.33,2.38-0.1,3.43,0.63c0.76,0.53,1.3,1.24,1.72,2.06c0.47,0.92,0.73,1.9,0.82,2.92c0.16,1.74-0.11,3.41-0.83,5.01
				c-0.34,0.74-0.78,1.42-1.34,2.02c-0.55,0.58-1.17,1.05-1.92,1.34c-1.35,0.52-2.64,0.38-3.83-0.44c-0.88-0.6-1.5-1.43-1.92-2.41
				C83.78,186.73,83.54,185.53,83.56,184.67z"/>
			<path d="M93.71,194.83c0.06-2.14,0.59-3.91,1.72-5.48c0.58-0.8,1.28-1.46,2.16-1.93c2.06-1.11,4.34-0.62,5.76,1.25
				c0.63,0.83,1.02,1.77,1.19,2.78c0.43,2.49-0.09,4.78-1.54,6.85c-0.59,0.85-1.34,1.53-2.27,2c-1.1,0.56-2.25,0.7-3.43,0.33
				c-0.82-0.25-1.49-0.74-2.04-1.39c-0.74-0.86-1.17-1.88-1.39-2.99C93.78,195.73,93.75,195.17,93.71,194.83z"/>
			<path d="M59.83,192.91c0.04-0.92,0.18-1.8,0.52-2.65c0.19-0.47,0.44-0.92,0.76-1.32c1.13-1.43,2.85-1.97,4.6-1.43
				c0.88,0.27,1.64,0.75,2.3,1.39c1.24,1.19,2,2.65,2.35,4.32c0.29,1.36,0.28,2.71-0.14,4.05c-0.22,0.69-0.55,1.33-1.03,1.87
				c-1.2,1.33-2.67,1.77-4.4,1.29c-0.94-0.26-1.73-0.78-2.41-1.45c-1.19-1.17-1.93-2.59-2.29-4.21
				C59.95,194.15,59.91,193.52,59.83,192.91z"/>
		</g>
		<g>
			<path d="M354.12,239.45c-1.15,0.03-2.25-0.3-3.32-0.76c-0.87-0.38-1.75-0.75-2.62-1.11c-0.26-0.11-0.52-0.2-0.78-0.29
				c-1.33-0.47-2.64-0.41-3.93,0.16c-0.81,0.36-1.59,0.75-2.39,1.12c-0.67,0.31-1.36,0.59-2.09,0.74c-1.77,0.37-3.47,0.13-5.06-0.69
				c-2.17-1.11-3.63-2.82-4.29-5.2c-0.28-1.03-0.3-2.06-0.05-3.09c0.36-1.53,1.08-2.85,2.29-3.88c0.42-0.36,0.85-0.72,1.28-1.08
				c1.3-1.07,2.43-2.28,3.42-3.64c0.74-1.01,1.49-2.01,2.28-2.98c0.5-0.61,1.05-1.18,1.62-1.72c0.91-0.85,1.98-1.44,3.16-1.83
				c1.43-0.48,2.87-0.49,4.3-0.01c1.32,0.44,2.5,1.11,3.48,2.1c0.65,0.66,1.26,1.36,1.84,2.08c0.7,0.87,1.35,1.77,2.01,2.66
				c0.87,1.18,1.88,2.23,3,3.18c0.5,0.42,1,0.83,1.49,1.26c1.53,1.34,2.28,3.06,2.43,5.06c0.05,0.68-0.06,1.34-0.24,1.99
				C360.93,237.14,357.42,239.49,354.12,239.45z"/>
			<path d="M333.93,206.15c0-1.46,0.18-2.48,0.6-3.45c0.25-0.58,0.58-1.11,1-1.57c1.28-1.42,3.14-1.88,4.94-1.25
				c0.82,0.29,1.53,0.76,2.15,1.37c1.25,1.22,1.99,2.72,2.33,4.41c0.3,1.48,0.26,2.95-0.25,4.38c-0.28,0.8-0.68,1.52-1.28,2.13
				c-1.35,1.37-2.95,1.75-4.78,1.17c-1.04-0.33-1.89-0.96-2.6-1.78C334.61,209.88,333.95,207.93,333.93,206.15z"/>
			<path d="M347.46,207.18c0.01-2.01,0.38-3.55,1.16-4.98c0.47-0.86,1.08-1.61,1.88-2.2c0.47-0.34,0.98-0.61,1.55-0.76
				c1.24-0.33,2.38-0.1,3.43,0.63c0.76,0.53,1.3,1.24,1.72,2.06c0.47,0.92,0.73,1.9,0.82,2.92c0.16,1.74-0.11,3.41-0.83,5.01
				c-0.34,0.74-0.78,1.42-1.34,2.02c-0.55,0.58-1.17,1.05-1.92,1.34c-1.35,0.52-2.64,0.38-3.83-0.44c-0.88-0.6-1.5-1.43-1.92-2.41
				C347.68,209.24,347.44,208.04,347.46,207.18z"/>
			<path d="M357.61,217.35c0.06-2.14,0.59-3.91,1.72-5.48c0.58-0.8,1.28-1.46,2.16-1.93c2.07-1.11,4.34-0.62,5.76,1.25
				c0.63,0.83,1.02,1.77,1.19,2.78c0.43,2.49-0.09,4.78-1.54,6.85c-0.59,0.85-1.34,1.53-2.27,2c-1.1,0.56-2.25,0.7-3.43,0.33
				c-0.82-0.25-1.49-0.74-2.04-1.39c-0.74-0.86-1.17-1.88-1.39-2.99C357.68,218.24,357.65,217.69,357.61,217.35z"/>
			<path d="M323.73,215.42c0.04-0.92,0.18-1.8,0.52-2.65c0.19-0.47,0.44-0.92,0.76-1.32c1.13-1.43,2.85-1.97,4.6-1.43
				c0.88,0.27,1.64,0.75,2.3,1.39c1.24,1.19,2,2.65,2.35,4.32c0.29,1.36,0.28,2.71-0.14,4.05c-0.22,0.69-0.55,1.33-1.03,1.87
				c-1.2,1.33-2.67,1.77-4.4,1.29c-0.94-0.26-1.73-0.78-2.41-1.45c-1.19-1.17-1.93-2.59-2.29-4.21
				C323.85,216.66,323.81,216.04,323.73,215.42z"/>
		</g>
		<g>
			<path d="M357.02,187.78c-0.84,0.02-1.65-0.22-2.43-0.56c-0.64-0.28-1.28-0.55-1.92-0.81c-0.19-0.08-0.38-0.15-0.57-0.21
				c-0.97-0.34-1.93-0.3-2.87,0.11c-0.59,0.26-1.17,0.55-1.75,0.82c-0.49,0.23-1,0.43-1.53,0.54c-1.29,0.27-2.53,0.09-3.7-0.51
				c-1.59-0.82-2.66-2.07-3.14-3.8c-0.21-0.75-0.22-1.51-0.04-2.26c0.27-1.12,0.79-2.09,1.67-2.84c0.31-0.26,0.62-0.53,0.93-0.79
				c0.95-0.78,1.78-1.67,2.5-2.66c0.54-0.74,1.09-1.47,1.67-2.18c0.36-0.45,0.76-0.86,1.18-1.26c0.66-0.62,1.45-1.05,2.31-1.34
				c1.05-0.35,2.1-0.36,3.14-0.01c0.96,0.32,1.83,0.81,2.54,1.54c0.48,0.48,0.92,0.99,1.35,1.52c0.51,0.63,0.99,1.29,1.47,1.95
				c0.64,0.86,1.38,1.63,2.2,2.32c0.36,0.31,0.73,0.61,1.09,0.92c1.12,0.98,1.67,2.24,1.78,3.7c0.04,0.49-0.05,0.98-0.18,1.46
				C362,186.09,359.43,187.81,357.02,187.78z"/>
			<path d="M342.25,163.43c0-1.07,0.13-1.82,0.44-2.53c0.18-0.42,0.43-0.81,0.73-1.15c0.93-1.04,2.3-1.38,3.61-0.91
				c0.6,0.21,1.12,0.56,1.57,1c0.91,0.89,1.46,1.99,1.71,3.23c0.22,1.08,0.19,2.15-0.18,3.21c-0.21,0.58-0.5,1.11-0.93,1.55
				c-0.99,1-2.16,1.28-3.49,0.85c-0.76-0.24-1.39-0.7-1.9-1.3C342.75,166.16,342.26,164.73,342.25,163.43z"/>
			<path d="M352.14,164.18c0.01-1.47,0.28-2.6,0.85-3.64c0.35-0.63,0.79-1.18,1.38-1.61c0.35-0.25,0.72-0.45,1.13-0.56
				c0.91-0.24,1.74-0.07,2.51,0.46c0.55,0.39,0.95,0.91,1.26,1.51c0.34,0.67,0.53,1.39,0.6,2.14c0.12,1.27-0.08,2.5-0.61,3.66
				c-0.25,0.54-0.57,1.04-0.98,1.47c-0.4,0.43-0.86,0.77-1.4,0.98c-0.99,0.38-1.93,0.27-2.8-0.32c-0.65-0.44-1.1-1.05-1.41-1.76
				C352.3,165.68,352.13,164.81,352.14,164.18z"/>
			<path d="M359.57,171.61c0.05-1.56,0.43-2.86,1.26-4.01c0.42-0.58,0.94-1.07,1.58-1.41c1.51-0.81,3.17-0.45,4.21,0.91
				c0.46,0.6,0.75,1.29,0.87,2.03c0.31,1.82-0.06,3.5-1.12,5.01c-0.43,0.62-0.98,1.12-1.66,1.47c-0.8,0.41-1.64,0.51-2.51,0.24
				c-0.6-0.18-1.09-0.54-1.49-1.01c-0.54-0.63-0.86-1.38-1.01-2.19C359.62,172.27,359.6,171.86,359.57,171.61z"/>
			<path d="M334.79,170.2c0.03-0.67,0.13-1.32,0.38-1.94c0.14-0.35,0.32-0.67,0.55-0.97c0.83-1.05,2.09-1.44,3.36-1.05
				c0.64,0.2,1.2,0.55,1.68,1.02c0.91,0.87,1.46,1.94,1.72,3.16c0.21,0.99,0.21,1.98-0.1,2.96c-0.16,0.5-0.4,0.97-0.75,1.37
				c-0.88,0.97-1.95,1.29-3.22,0.94c-0.68-0.19-1.26-0.57-1.77-1.06c-0.87-0.85-1.41-1.9-1.67-3.08
				C334.88,171.11,334.85,170.65,334.79,170.2z"/>
		</g>
	</g>
	<g>
		<path d="M352.61,310.8c-1.01,0.85-1.5,1.88-2.22,2.71c-0.68,0.79-1.36,1.6-2.07,2.36c-0.76,0.81-1.57,1.58-2.39,2.39
			c0.3,1.3,1.04,2.18,2.02,2.92c0.53,0.4,1.06,0.85,1.47,1.36c0.59,0.73,0.59,1.52,0.01,2.27c-0.4,0.53-0.92,0.97-1.55,1.63
			c0,0.16,0.01,0.52,0,0.88c-0.04,1-0.62,1.66-1.42,2.15c-1.13,0.68-2.37,0.92-3.67,0.78c-0.97-0.1-1.93-0.26-2.89-0.39
			c-1.77-0.24-3.05-1.15-3.78-2.8c-0.39-0.89-0.78-1.78-1.19-2.66c-0.7-1.52-1.69-2.82-3.08-3.78c-0.24-0.16-0.52-0.26-0.88-0.43
			c-0.2,0.38-0.39,0.69-0.53,1.01c-0.25,0.57-0.05,1.03,0.41,1.38c0.6,0.44,1.26,0.81,1.84,1.28c2.11,1.75,1.16,3.71-0.42,4.58
			c-3.21,1.76-6.46,1.64-9.66-0.02c-0.63-0.33-1.12-0.98-1.61-1.53c-0.6-0.66-1.1-1.42-1.72-2.06c-1.18-1.22-2.58-2.02-4.32-2.14
			c-0.52-0.04-1.03-0.2-1.54-0.27c-3.76-0.48-5.79-2.9-6.82-6.28c-0.96-3.18-0.7-6.38,0.48-9.47c0.31-0.81,0.83-1.62,1.45-2.21
			c1.11-1.06,2.57-0.65,2.98,0.81c0.23,0.83,0.21,1.77,0.15,2.65c-0.08,1.12-0.34,2.22-0.49,3.33c-0.19,1.44,0.01,2.84,0.65,4.15
			c0.9,1.83,2.43,2.8,4.41,3.04c1.14,0.14,1.91-0.28,2.27-1.38c0.28-0.83,0.45-1.75,0.46-2.63c0.01-1.94-0.08-3.89-0.19-5.83
			c-0.24-4.14,0.03-8.23,1.14-12.23c1.22-4.41,3.35-8.3,6.74-11.45c1.31-1.22,2.56-2.52,3.76-3.85c2.53-2.81,2.95-5.99,1.29-9.35
			c-0.92-1.87-2.01-3.67-3.18-5.4c-1.06-1.56-1.57-3.16-1.42-5.05c0.13-1.53,0.79-2.66,2.2-3.05c1.78-0.5,3.23-1.52,4.76-2.45
			c0.83-0.5,1.68-0.97,2.55-1.4c2.66-1.32,5.33-1.26,8.01-0.05c0.61,0.28,1.2,0.6,1.77,0.88c1.51-0.89,2.97-1.79,4.47-2.6
			c0.78-0.42,1.63-0.76,2.49-1.01c1.48-0.42,2.38,0.25,2.33,1.77c-0.07,2.32-0.28,4.66-1.28,6.79c-1.3,2.76-1.39,5.61-1.02,8.56
			c0.96,7.68,2.84,15.12,5.44,22.4c1.23,3.45,2.36,6.93,2.93,10.57c0.48,3.06,0.45,6.11,0.18,9.17c-0.19,2.16-0.4,4.32-0.53,6.49
			c-0.06,0.97,0,1.94,0.06,2.91c0.11,1.55,0.59,2.91,1.95,3.86c0.94,0.65,1.28,1.61,1.13,2.75c-0.21,1.56-1.1,2.64-2.63,2.98
			c-1.25,0.28-2.54,0.28-3.79-0.01c-1.68-0.4-2.78-1.48-3.12-3.17c-0.4-1.98-0.7-3.97-0.96-5.97c-0.35-2.67-0.62-5.35-0.96-8.02
			C353.03,312.11,352.81,311.55,352.61,310.8z"/>
		<path d="M74.83,236.64c0.47-0.38,0.82-0.66,1.17-0.93c1.38-1.11,2.95-1.75,4.72-1.88c1.64-0.12,3.28-0.24,4.87-0.76
			c0.35-0.11,0.74-0.09,1.11-0.12c1.26-0.11,2.18,0.38,2.69,1.57c0.15,0.34,0.25,0.72,0.46,1.02c1.55,2.14,1.53,4.43,0.84,6.85
			c-0.27,0.93-0.43,1.9-0.5,2.86c-0.14,1.85,0.57,3.36,2.07,4.47c1.15,0.86,2.39,1.52,3.83,1.76c2,0.33,2.79-0.01,3.46-1.92
			c0.82-2.34,2-4.51,3.08-6.72c1.08-2.22,2.76-3.89,4.88-5.13c0.85-0.5,1.75-0.82,2.77-0.74c1.81,0.15,2.82,1.59,2.2,3.31
			c-0.22,0.61-0.64,1.17-1.04,1.69c-0.27,0.34-0.66,0.61-1.03,0.86c-1.82,1.24-2.93,2.99-3.48,5.07c-0.48,1.8-0.9,3.63-1.24,5.46
			c-0.53,2.9-1.36,5.66-2.89,8.2c-0.99,1.63-1.36,3.47-1.59,5.33c-0.06,0.44-0.05,0.9-0.01,1.34c0.1,0.96,0.63,1.56,1.57,1.58
			c0.8,0.02,1.64-0.1,2.41-0.33c0.93-0.27,1.79-0.75,2.7-1.08c0.84-0.31,1.69-0.62,2.56-0.79c1.13-0.21,2.28,0.36,2.68,1.22
			c0.46,0.98,0.31,1.96-0.42,2.71c-0.83,0.85-1.75,1.63-2.73,2.3c-0.86,0.58-1.85,0.96-2.79,1.43c-0.8,0.41-1.6,0.82-2.39,1.23
			c-2.02,1.06-3.09,2.76-3.29,5.02c-0.14,1.56-0.29,3.13-0.38,4.7c-0.25,4.32-1.14,8.45-3.48,12.16c-1.07,1.7-1.28,3.43-0.71,5.36
			c0.84,2.83,0.96,5.73,0.83,8.67c-0.06,1.34-0.02,2.7,0.15,4.02c0.35,2.68,1.96,4.28,4.55,4.92c0.94,0.23,1.91,0.36,2.85,0.61
			c1.04,0.28,1.92,0.81,2.44,1.82c0.54,1.05,0.38,2.05-0.5,2.83c-0.69,0.61-1.52,0.97-2.43,1.07c-0.59,0.07-1.2,0.13-1.79,0.06
			c-1.93-0.22-3.86-0.42-5.78-0.76c-2.72-0.48-4.86-1.96-6.33-4.27c-0.92-1.44-1.6-3.03-2.37-4.57c-0.33-0.65-0.6-1.33-0.99-2.23
			c-1.19,1.65-2.31,3.04-2.82,4.75c-0.8,2.64-0.33,5.18,0.97,7.57c0.32,0.59,0.78,1.1,1.11,1.69c0.94,1.69,0.11,3.39-1.82,3.64
			c-0.81,0.1-1.64,0.02-2.46-0.05c-2.17-0.2-2.9-0.8-3.28-2.97c-0.31-1.76-0.43-3.56-0.62-5.35c-0.17-1.63-0.32-3.26-0.5-5.02
			c-0.64,0.46-0.72,1.08-0.96,1.6c-0.75,1.65-1.73,3.14-2.96,4.47c-1.56,1.69-3.46,2.86-5.66,3.48c-0.78,0.22-1.62,0.24-2.43,0.26
			c-0.35,0.01-0.73-0.15-1.04-0.33c-0.82-0.48-0.99-1.4-0.34-2.08c0.46-0.48,1.05-0.83,1.57-1.26c1.21-0.99,2.52-1.9,3.6-3.02
			c3.14-3.23,4.84-7.15,5.16-11.65c0.1-1.34,0.05-2.69,0.04-4.04c-0.03-3.14-0.13-6.28-0.11-9.43c0.01-1.64,0.22-3.28,0.29-4.92
			c0.12-2.99,0.38-5.99,0.28-8.97c-0.24-6.83,0.25-13.61,1.03-20.38c0.35-3.03,0.1-5.96-0.9-8.85c-0.37-1.06-0.65-2.15-0.95-3.23
			c-0.47-1.7-1.26-3.18-2.63-4.34c-1.5-1.27-2.63-2.84-3.53-4.6c-0.64-1.26-1.4-2.47-2.09-3.71c-0.29-0.52-0.57-1.06-0.79-1.61
			c-0.37-0.93,0-1.63,1-1.84c0.58-0.12,1.19-0.13,1.78-0.15C70.64,235.57,72.69,235.98,74.83,236.64z"/>
	</g>
	<g>
		<g>
			<path d="M300.8,98.38c7.96,0.16,15.63,1.79,23.2,4.06c5.36,1.61,10.69,3.32,16.07,4.85c4.62,1.31,9.34,2.13,14.16,2.08
				c6.27-0.06,12.22-1.44,17.8-4.33c0.4-0.21,0.99-0.47,1.33-0.32c0.59,0.26,0.46,0.98,0.41,1.53c-0.24,2.72-0.86,5.37-1.81,7.92
				c-0.87,2.36-1.77,4.71-2.86,6.97c-0.94,1.95-0.75,3.64,0.41,5.37c1.93,2.87,4.07,5.57,6.53,8.01c0.52,0.51,1.05,1.02,1.52,1.57
				c0.63,0.73,0.6,1.15-0.16,1.73c-1.1,0.84-2.21,1.66-3.38,2.38c-7.74,4.82-16.14,7.91-25.14,9.38c-4.9,0.8-9.83,1.16-14.8,0.94
				c-5.37-0.23-10.65-1.05-15.77-2.77c-1.6-0.54-1.92-1.06-2.03-2.75c-0.48-7.9-0.93-15.8-1.5-23.69c-0.22-3.03-0.74-6.04-1.15-9.05
				c-0.06-0.43-0.18-0.89-0.38-1.27c-0.44-0.83-1.21-1.04-2.08-0.85c-1.15,0.25-2.29,0.56-3.44,0.8c-3.17,0.67-6.33,1.43-9.53,1.94
				c-3.69,0.59-7.39,0.5-10.86-1.11c-1.27-0.59-2.52-1.33-3.6-2.22c-1.91-1.57-2.04-3.63-0.53-5.6c0.93-1.21,2.16-2.07,3.5-2.79
				c2.28-1.22,4.75-1.89,7.29-2.22C296.26,98.66,298.53,98.56,300.8,98.38z"/>
			<path d="M131.14,176.21c-7.66-0.05-15.07-1.55-22.38-3.72c-5.64-1.67-11.23-3.47-16.89-5.09c-4.66-1.33-9.42-2.14-14.29-2.07
				c-6.18,0.09-12.06,1.46-17.56,4.33c-1.49,0.78-1.83,0.56-1.74-1.17c0.14-2.61,0.76-5.14,1.65-7.58c0.88-2.44,1.93-4.82,2.89-7.23
				c0.24-0.6,0.5-1.2,0.67-1.82c0.33-1.19-0.13-2.24-0.74-3.22c-1.84-2.98-4.04-5.69-6.5-8.18c-0.57-0.58-1.17-1.13-1.71-1.74
				c-0.79-0.88-0.75-1.25,0.2-1.98c2.41-1.88,5.02-3.43,7.73-4.83c7.13-3.69,14.68-6.03,22.63-7.1c4.28-0.58,8.56-0.85,12.87-0.65
				c5.37,0.25,10.64,1.08,15.77,2.78c1.32,0.44,1.91,1.23,1.96,2.57c0.1,2.68,0.2,5.35,0.37,8.03c0.48,7.65,0.85,15.32,1.95,22.92
				c0.09,0.64,0.19,1.29,0.3,1.92c0.37,2,1.07,2.5,3.04,2.06c1.98-0.45,3.94-0.95,5.91-1.43c3.2-0.77,6.43-1.36,9.73-1.47
				c3.36-0.1,6.54,0.53,9.45,2.28c0.73,0.44,1.43,0.94,2.04,1.52c1.53,1.44,1.77,3.36,0.5,5.04c-0.72,0.95-1.66,1.79-2.64,2.48
				c-2.13,1.5-4.6,2.18-7.12,2.68C136.57,176.07,133.86,176.2,131.14,176.21z"/>
			<path d="M305.1,114.1c-0.48,0.33-0.89,0.71-1.38,0.93c-1.88,0.85-3.74,1.75-5.68,2.46c-4.75,1.74-9.61,2.26-14.58,3.27
				c-1.23,0.25-1.68,0.02-1.79-1.26c-0.22-2.54-0.3-4.21-0.4-6.76c-0.01-0.37,0.18-0.74,0.31-1.2c0.31,0.11,0.53,0.13,0.67,0.24
				c3.41,2.81,7.44,3.36,11.66,3.26c3.34-0.08,6.59-0.77,9.85-1.39C304.45,113.51,304.45,113.51,305.1,114.1z"/>
			<path d="M127.56,161.15c-0.15-0.88,0.41-1.11,0.84-1.32c1.74-0.86,3.47-1.75,5.27-2.48c4.46-1.81,9.1-2.89,13.89-3.35
				c0.4-0.04,0.81-0.01,1.21,0.03c0.87,0.08,1.49,0.57,1.63,1.4c0.4,2.4,0.53,4.83,0.21,7.26c-0.02,0.14-0.17,0.26-0.33,0.49
				c-0.28-0.16-0.58-0.27-0.82-0.46c-2.5-2.03-5.46-2.76-8.58-3c-3.84-0.29-7.59,0.37-11.34,1.09
				C128.9,160.93,128.24,161.03,127.56,161.15z"/>
			<g>
				<path d="M160.47,130.94c-0.47-0.2-1.8-0.44-1.97-0.44c-0.86,0.02-1.27,0.37-1.42,1.22c-0.14,0.8-0.02,1.58,0.25,2.33
					c0.1,0.28,0.28,0.5,0.57,0.59c0.91,0.27,1.83,0.3,2.69-0.17c0.71-0.38,1.03-1.04,1.03-1.82
					C161.63,131.85,161.21,131.26,160.47,130.94z"/>
				<path d="M158.03,122.9c0.85,0.01,1.61-0.24,2.11-0.98c0.45-0.66,0.26-1.46-0.43-1.85c-0.34-0.19-2.39-0.96-2.57,0.58
					c-0.06,0.48-0.03,0.98,0.03,1.46C157.23,122.54,157.61,122.89,158.03,122.9z"/>
				<path d="M214.93,138.38c-0.37-0.44-0.89-0.48-1.28-0.06c-0.73,0.77-1.13,1.72-1.32,2.75c-0.08,0.44,0.11,0.71,0.53,0.88
					c0.28,0.11,1.46,0.29,1.76,0.28c0.71-0.03,1.08-0.4,1.02-1.12c-0.05-0.65-0.16-1.3-0.3-1.94
					C215.28,138.88,215.11,138.6,214.93,138.38z"/>
				<path d="M311.87,119.24c-0.09-0.93-0.25-1.85-0.44-2.76c-0.23-1.1-0.81-1.41-1.87-1.06c-0.34,0.11-0.66,0.3-0.99,0.46
					c-1.43,0.67-2.84,1.4-4.3,2.01c-13.73,5.68-26.76,8.59-42.79,8.93c-27.54,0.04-62.39-15.91-95.56-21.82
					c-8.37-1.63-16.78-2.41-25.29-1.33c-6.2,0.79-12.16,2.43-17.82,5.1c-1.2,0.57-2.32,1.32-3.47,2.01
					c-0.75,0.45-1.06,1.1-1.06,2.02c0.03,5.52-0.15,11.04,0.05,16.56c0.24,6.93,0.74,13.86,1.21,20.78c0.2,2.87,0.59,5.73,0.97,8.58
					c0.21,1.59,0.93,1.94,2.36,1.25c0.84-0.4,1.66-0.86,2.46-1.34c8.37-4.97,17.49-7.21,27.15-7.46c7.77-0.2,15.38,0.95,22.89,2.83
					c10.39,2.59,20.74,5.3,31.1,8c10.57,2.75,21.24,4.98,32.11,6.17c8.36,0.91,16.74,1.39,24.68,1.36
					c8.23,0.01,15.98-0.36,23.7-1.12c8.33-0.82,16.55-2.3,24.66-4.36c1.6-0.41,1.89-0.74,2.1-2.39c0.05-0.4,0.09-0.81,0.09-1.21
					c0.03-1.75,0.07-3.49,0.07-5.24C313.84,143.18,313.04,131.2,311.87,119.24z M170.44,136.43c-1.08,1.81-2.6,3.12-4.56,3.91
					c-1.5,0.61-3.08,0.88-4.68,1c-1.94,0.15-3.88,0.16-5.83-0.02c-1.2-0.25-2.41-0.46-3.6-0.75c-1.36-0.33-2.28-1.21-2.8-2.5
					c-0.47-1.19-0.69-2.43-0.82-3.69c-0.25-2.52-0.27-5.04-0.22-7.57c0.07-3.2,0.41-6.37,0.88-9.52c0.16-1.04,0.36-2.08,0.55-3.12
					c0.17-0.92,0.72-1.48,1.66-1.61c0.69-0.09,1.39-0.18,2.08-0.18c3.75,0.03,7.4,0.63,10.91,2c0.99,0.38,1.92,0.88,2.76,1.54
					c0.93,0.72,1.67,1.59,2.12,2.68c0.65,1.57,0.53,3.12-0.28,4.58c-0.36,0.65-0.86,1.23-1.34,1.81c-0.39,0.46-0.84,0.87-1.26,1.3
					c-0.14,0.15-0.27,0.32-0.37,0.5c-0.15,0.29-0.11,0.51,0.17,0.69c0.31,0.21,0.66,0.36,0.99,0.53c0.6,0.31,1.24,0.57,1.82,0.91
					C171.58,130.7,171.83,134.1,170.44,136.43z M194.05,145.02c-0.52,1.15-1.38,1.89-2.58,2.26c-1.34,0.41-2.72,0.55-4.11,0.59
					c-2.18,0.06-4.35-0.05-6.48-0.6c-0.77-0.2-1.49-0.51-2.16-0.93c-1.06-0.68-1.68-1.63-1.85-2.89c-0.13-0.96-0.09-1.91-0.01-2.86
					c0.26-3.26,0.88-6.47,1.72-10.65c0.4-1.53,1.01-4.03,1.7-6.5c0.29-1.04,0.74-2.05,1.11-3.06c0.05-0.12,0.12-0.24,0.17-0.35
					c0.5-1.06,1.34-1.53,2.5-1.42c0.07,0.01,0.15,0.01,0.22,0.03c1.94,0.38,3.84,0.87,5.7,1.53c0.16,0.06,0.31,0.13,0.46,0.21
					c1.31,0.7,1.85,1.87,1.42,3.31c-0.25,0.82-0.59,1.62-0.94,2.41c-0.81,1.8-1.63,3.59-2.2,5.48c-0.61,2.04-1.06,4.11-1.03,6.25
					c0.01,0.41,0.09,0.82,0.19,1.21c0.13,0.5,0.47,0.86,0.98,1c0.45,0.12,0.91,0.22,1.37,0.29c0.82,0.12,1.64,0.21,2.46,0.31
					c0.2,0.03,0.41,0.06,0.61,0.12c0.76,0.23,1.2,0.74,1.29,1.54C194.7,143.26,194.44,144.15,194.05,145.02z M225.13,153.77
					c-0.16,0.63-0.39,1.26-0.7,1.84c-0.63,1.16-1.67,1.7-2.99,1.67c-0.66-0.02-1.31-0.1-1.97-0.15c-1.06-0.21-2.1-0.47-3.1-0.88
					c-0.21-0.09-0.41-0.19-0.61-0.29c-0.78-0.43-1.27-1.08-1.31-1.98c-0.04-0.94,0-1.88,0-2.82c0-0.53,0.04-1.05,0.01-1.58
					c-0.05-0.82-0.42-1.13-1.24-1.09c-0.73,0.03-1.31,0.33-1.7,0.95c-0.32,0.51-0.59,1.05-0.92,1.55c-0.38,0.58-0.76,1.17-1.21,1.69
					c-0.73,0.84-1.68,1.29-2.8,1.44c-1.46,0.19-2.89,0-4.31-0.32c-0.33-0.07-0.66-0.17-0.97-0.29c-1.51-0.57-2.37-1.88-2.36-3.5
					c0.01-0.96,0.24-1.87,0.52-2.76c0.52-1.68,1.31-3.24,2.14-4.78c2.1-3.92,4.45-7.68,7.2-11.19c0.65-0.83,1.36-1.61,2.09-2.37
					c0.36-0.38,0.8-0.69,1.24-0.97c0.73-0.48,1.55-0.67,2.42-0.59c1.7,0.15,3.35,0.5,4.93,1.14c1.24,0.49,2.14,1.36,2.54,2.64
					c0.52,1.65,1.01,3.31,1.42,4.99c0.98,3.99,1.7,8.02,1.97,12.13C225.54,150.08,225.58,151.94,225.13,153.77z M253.29,143.84
					c-0.74,1.28-1.81,1.94-3.32,1.72c-1-0.15-1.99-0.36-2.98-0.54c-1.02-0.19-2.03-0.33-3.07-0.19c-2.06,0.27-3.57,1.63-3.92,3.68
					c-0.42,2.45,1.4,4.82,4.19,4.42c1-0.14,1.83-0.61,2.6-1.23c0.39-0.31,0.75-0.65,1.14-0.95c1.18-0.9,2.31-0.89,3.42,0.11
					c1.29,1.17,2.02,2.62,1.82,4.42c-0.07,0.67-0.34,1.29-0.67,1.87c-1.22,2.09-3.02,3.43-5.39,3.89c-3.06,0.6-5.99,0.19-8.73-1.38
					c-2.57-1.47-4.3-3.68-5.43-6.37c-1.07-2.56-1.45-5.24-1.24-8.52c0.6-5.27,3.78-9.06,9.16-11.05c2.76-1.02,5.65-1.44,8.6-1.25
					c0.7,0.04,1.4,0.18,2.08,0.34c0.99,0.24,1.61,0.9,1.93,1.85c0.35,1.04,0.47,2.12,0.54,3.2c0.06,0.84,0.08,1.67,0.1,2.51
					C254.14,141.6,253.91,142.77,253.29,143.84z M284.67,138.05c-0.18,1.09-0.67,2.06-1.3,2.96c-0.72,1.03-1.48,2.03-2.24,3.04
					c-0.82,1.1-1.65,2.19-2.48,3.29c-0.66,0.87-0.72,1.79-0.3,2.79c0.5,1.22,1.17,2.35,1.84,3.48c0.63,1.07,1.22,2.16,1.6,3.34
					c0.13,0.4,0.24,0.8,0.3,1.21c0.13,0.79-0.1,1.48-0.71,2c-1.15,0.99-2.5,1.45-4.02,1.34c-0.63-0.04-1.17-0.31-1.62-0.77
					c-0.95-0.98-1.68-2.11-2.3-3.32c-0.18-0.36-0.38-0.7-0.59-1.04c-0.11-0.17-0.25-0.34-0.41-0.47c-0.49-0.4-1.05-0.19-1.15,0.43
					c-0.04,0.26-0.02,0.53-0.03,0.8c-0.01,0.8-0.04,1.6-0.33,2.36c-0.03,0.09-0.06,0.18-0.1,0.27c-0.38,1.04-1.09,1.68-2.21,1.82
					c-1.06,0.13-2.1,0.08-3.12-0.26c-0.92-0.3-1.58-0.89-2.03-1.74c-0.59-1.12-0.98-2.31-1.29-3.53c-0.63-2.49-1.06-5.02-1.33-7.58
					c-0.21-2.02-0.4-4.05-0.59-6.07c-0.1-2.04-0.12-4.07,0.15-6.1c0.05-0.41,0.16-0.82,0.31-1.21c0.43-1.07,1.25-1.72,2.39-1.92
					c1.88-0.32,3.77-0.33,5.65,0c0.08,0.01,0.15,0.03,0.22,0.06c1.58,0.46,1.78,0.99,1.82,2.24c0.03,0.76-0.05,1.52-0.07,2.28
					c-0.01,0.61-0.01,1.22,0.02,1.82c0.02,0.38,0.1,0.8,0.55,0.91c0.45,0.12,0.72-0.2,0.93-0.53c0.48-0.78,0.95-1.56,1.4-2.36
					c0.66-1.17,1.43-2.25,2.33-3.24c0.47-0.52,1.02-0.93,1.69-1.15c0.81-0.27,1.63-0.21,2.42,0.09c1.32,0.52,2.53,1.24,3.65,2.12
					C284.62,136.11,284.84,137,284.67,138.05z"/>
			</g>
		</g>
		<g>
			<path d="M313.38,257.93c-2.09-1.25-4.21-2.45-6.36-3.61c-0.93-0.5-1.38-0.36-2.03,0.44c-0.38,0.47-0.7,1-1.02,1.51
				c-5.74,9.09-11.47,18.19-17.21,27.28c-1.08,1.71-1.63,1.71-2.71,0.06c-0.15-0.23-0.3-0.47-0.45-0.7
				c-5.38-8.53-10.76-17.06-16.14-25.6c-0.33-0.52-0.64-1.04-1-1.53c-0.76-1.03-1.02-1.21-2.24-0.72c-2.3,0.93-4.57,1.98-6.8,3.07
				c-0.94,0.46-1.06,1.09-0.58,2.1c0.34,0.7,0.76,1.35,1.18,2.01c6.65,10.55,13.3,21.1,19.97,31.64c1.43,2.26,2.17,4.68,2.18,7.37
				c0.03,8.59,0.11,17.19,0.18,25.78c0.01,1.05,0.02,2.11,0.09,3.16c0.12,1.82,0.47,2.18,2.34,2.31c1.05,0.07,4.71-0.03,5.48-0.03
				c0.22,0,0.44-0.02,0.66-0.03c1.71-0.12,1.95-0.36,2.04-2.12c0.02-0.44,0.01-0.89,0.01-1.33c-0.03-3.83-0.06-7.65-0.08-11.48
				c-0.04-5.6-0.05-11.2-0.14-16.8c-0.04-2.41,0.53-4.52,1.85-6.58c6.81-10.64,13.52-21.35,20.26-32.04
				c0.41-0.65,0.84-1.31,1.15-2.02C314.43,259.06,314.3,258.48,313.38,257.93z"/>
			<path d="M179.08,290.32c-0.31-4.49-1.2-8.86-2.74-13.1c-2.47-6.83-6.26-12.76-11.98-17.34c-10.4-8.32-23.78-7.96-33.72,0.88
				c-4.02,3.58-7,7.91-9.04,12.86c-4.93,11.95-5.03,24.03-0.7,36.15c2.46,6.9,6.44,12.79,12.3,17.29
				c10.44,8.01,23.94,7.35,33.59-1.59c3.08-2.86,5.54-6.18,7.44-9.91C178.27,307.62,179.7,299.16,179.08,290.32z M165.68,309.53
				c-1.63,3.58-3.83,6.74-6.94,9.21c-5.82,4.63-12.78,4.81-18.83,0.45c-4.01-2.89-6.77-6.79-8.64-11.29
				c-3.92-9.39-4.22-18.95-0.84-28.56c1.47-4.18,3.73-7.89,7.08-10.86c6.17-5.48,13.86-5.69,20.35-0.59c3.56,2.8,6,6.45,7.84,10.53
				c1.81,4.02,2.74,8.27,3.13,12.55C169.2,297.47,168.36,303.66,165.68,309.53z"/>
			<path d="M231.55,286.57c-0.06-3.65-0.44-7.32-0.9-10.95c-0.53-4.23-1.74-8.26-4.07-11.9c-6.86-10.71-19.51-11.7-27.55-7.86
				c-6.38,3.05-10.14,8.24-12,14.93c-1.51,5.42-1.85,11-1.94,16.59c-0.2,12.35-0.32,24.7-0.45,37.05c-0.02,1.86,0.02,3.72,0.06,5.58
				c0.06,2.22,0.54,2.69,2.7,2.71c1.8,0.01,3.61,0.01,5.41,0c2.43-0.02,2.68-0.3,2.68-2.74c-0.01-7.95,0.2-27.91,0.21-29.94
				c0.02-2.09,0.03-4.17,0.09-6.26c0.11-4.06,0.09-8.13,0.43-12.17c0.25-2.96,0.79-5.92,1.52-8.8c1.07-4.21,4.85-8.42,11.03-8.12
				c3.71,0.18,6.47,1.7,8.54,4.65c1.15,1.64,1.73,3.53,2.18,5.46c0.94,4.03,1.2,8.15,1.26,12.26c0.19,14.21,0.29,28.42,0.42,42.63
				c0,0.45-0.02,0.91,0.04,1.35c0.15,1.17,0.55,1.61,1.75,1.64c2.37,0.06,4.74,0.06,7.1,0.01c1.15-0.03,1.61-0.49,1.8-1.63
				c0.11-0.66,0.12-1.35,0.12-2.02C231.87,314.88,231.78,300.72,231.55,286.57z"/>
			<path d="M250.2,279.66c-0.15,8.93,0.01,17.86,0.73,26.77c0.22,2.79,0.77,5.56,1.23,8.32c0.14,0.8,0.48,1.58,0.78,2.35
				c0.96,2.43,2.63,4.03,5.3,4.43c0.27,0.04,0.54,0.1,0.81,0.16c1.57,0.4,1.81,0.64,1.88,2.23c0.09,2.15,0.14,4.3,0.13,6.45
				c0,1.41-0.42,1.8-1.79,1.75c-7.17-0.28-12.55-3.39-15.66-10.01c-1.88-4-2.63-8.28-3.01-12.63c-1.1-12.48-1.1-24.99-1-37.5
				c0.04-4.68,0.03-9.37,0.05-14.06c0-0.39-0.01-0.77,0.01-1.16c0.08-1.78,0.49-2.25,2.29-2.29c2.2-0.05,4.41-0.01,6.61,0.04
				c1.05,0.02,1.36,0.32,1.54,1.36c0.11,0.65,0.11,1.32,0.11,1.98C250.2,265.1,250.2,272.38,250.2,279.66z"/>
		</g>
		<path d="M194.79,184.86c0.55-0.66,0.94-1.14,1.36-1.61c1.61-1.8,3.57-2.46,5.9-1.72c2.27,0.72,3.16,2.55,3.44,4.69
			c0.33,2.55,0.6,5.11,0.65,7.68c0.12,6.04,0.1,12.09,0.12,18.13c0.01,3.99,0.06,7.99,0.95,11.89c0.51,2.24,1.33,4.41,2.11,6.58
			c0.2,0.56,0.74,1,1.33,1.77c0.76-1.15,1.45-2.05,2-3.03c2.88-5.2,4.92-10.74,6.41-16.48c0.22-0.86,0.32-1.77,0.34-2.66
			c0.11-5.65,0.19-11.31,0.26-16.96c0-0.24-0.12-0.48-0.24-0.96c-1.38-0.65-2.86-0.26-4.32,0.13c-0.92,0.25-1.76,0.23-2.59-0.27
			c-0.71-0.43-0.92-1.36-0.41-1.98c0.95-1.14,2.21-1.74,3.62-2.04c1.5-0.32,3.01-0.57,4.69-0.88c0.24-1.11,0.38-2.26,0.74-3.34
			c0.62-1.81,1.27-3.64,2.14-5.33c0.71-1.39,1.96-2.36,3.56-2.74c3.33-0.8,5.92,0.63,6.69,4.04c0.44,1.97,0.38,4.07,0.48,6.11
			c0.07,1.39,0.01,2.78,0.01,4.27c0.91,0,1.78-0.04,2.64,0.01c0.88,0.05,1.79,0.09,2.62,0.35c0.38,0.12,0.82,0.73,0.85,1.14
			c0.03,0.4-0.34,1.09-0.69,1.21c-1.8,0.65-3.64,1.16-5.7,1.79c-0.04,0.08-0.3,0.4-0.33,0.74c-0.66,10.3-0.41,20.56,1.54,30.73
			c0.34,1.75,0.94,3.47,1.6,5.14c0.42,1.06,1.06,2.07,1.78,2.95c1.24,1.52,2.94,1.75,4.39,0.45c1.42-1.28,2.79-2.71,3.82-4.3
			c3.08-4.74,6.08-9.53,8.91-14.42c1.66-2.87,3.19-5.84,4.3-9.27c-0.6-0.3-1.11-0.61-1.66-0.81c-2.29-0.83-4.67-1.46-6.87-2.49
			c-1.84-0.86-3.61-2-5.15-3.32c-2.84-2.43-3.88-5.66-3.4-9.37c0.89-7.01,9.44-13.88,15.75-13.5c6.17,0.37,11.05,4.88,11.14,11.04
			c0.04,2.54-0.5,5.1-0.83,7.64c-0.11,0.87-0.38,1.72-0.61,2.75c0.7,0.24,1.27,0.51,1.87,0.62c2.64,0.49,5.29,0.94,8.12,1.43
			c0.61-1.11,1.17-2.08,1.7-3.07c3.5-6.57,8.15-12.15,14.17-16.55c1.88-1.37,3.85-2.55,6.13-3.16c5.31-1.42,9.91-0.24,13.73,3.76
			c3.16,3.31,4.66,7.37,5.05,11.83c0.39,4.49,0.24,9-0.55,13.45c-0.38,2.11-1.78,3.09-3.84,2.78c-0.97-0.15-1.67-0.77-1.76-1.75
			c-0.08-0.89-0.02-1.79-0.02-2.69c0.02-3.08,0.12-6.17,0.04-9.25c-0.08-3.11-0.73-6.14-2.26-8.89c-0.68-1.22-1.57-2.35-2.49-3.41
			c-1.94-2.24-4.42-2.51-7.03-1.48c-1.3,0.51-2.53,1.28-3.66,2.11c-5.8,4.29-10.23,9.71-13.17,16.32c-0.15,0.33-0.18,0.7-0.31,1.2
			c0.73,0.32,1.43,0.6,2.11,0.93c2.54,1.23,5.23,2.23,7.56,3.77c8.3,5.49,12.4,13.34,11.59,23.26
			c-0.82,10.09-7.38,17.81-18.26,19.39c-5.02,0.73-8.77-1.24-11.41-5.46c-2.46-3.94-3.21-8.36-3.4-12.9
			c-0.23-5.44,0.67-10.76,1.83-16.04c0.33-1.5,0.69-2.99,1.05-4.57c-3.11-1.62-6.5-1.71-9.8-2.84c-0.54,0.87-1.03,1.58-1.43,2.34
			c-2.63,5-5.11,10.09-7.9,15c-1.84,3.23-4.01,6.29-6.26,9.25c-1.3,1.71-2.91,3.29-4.65,4.56c-4.05,2.96-9.17,2.91-13.37,0.15
			c-2.07-1.36-3.73-3.14-5.14-5.16c-1.71-2.44-2.98-5.1-3.99-7.89c-0.38-1.06-0.83-2.1-1.37-3.47c-0.92,0.75-1.07,1.62-1.42,2.34
			c-1.28,2.66-2.49,5.35-3.85,7.97c-0.59,1.13-1.36,2.2-2.24,3.12c-2.41,2.54-5.78,2.93-8.78,1.08c-2.12-1.31-3.68-3.2-5.05-5.23
			c-2.25-3.34-3.67-7.05-4.78-10.9c-0.28-0.96-0.62-1.9-1.1-3.35c-0.64,1.42-1.06,2.32-1.45,3.24c-1.99,4.74-3.91,9.51-5.99,14.21
			c-0.72,1.63-1.66,3.22-2.78,4.6c-3.01,3.71-8.01,4.12-11.54,0.73c-1.97-1.89-3.58-4.04-4.9-6.41c-1.76-3.16-3-6.53-3.96-10.01
			c-0.3-1.11-0.62-2.22-1.02-3.66c-0.66,0.75-1.19,1.24-1.61,1.82c-2.47,3.45-4.85,6.96-7.38,10.36c-1.38,1.85-2.92,3.6-4.53,5.25
			c-2.27,2.33-4.94,4.09-8.09,5.05c-3.34,1.01-6.61,0.89-9.74-0.69c-1.26-0.63-2.47-1.39-3.6-2.23
			c-11.86-8.88-17.35-26.52-12.62-40.51c0.99-2.94,2.31-5.72,4.28-8.15c6.25-7.71,16.13-8.88,24-2.83
			c3.47,2.67,5.89,6.08,7.05,10.32c0.26,0.96,0.3,2.04,0.14,3.02c-0.08,0.47-0.8,1.08-1.31,1.16c-0.49,0.08-1.28-0.28-1.59-0.71
			c-0.51-0.71-0.73-1.63-1.09-2.45c-1.07-2.51-2.5-4.79-4.6-6.57c-0.78-0.66-1.6-1.31-2.48-1.82c-4-2.31-6.71-1.6-9.01,2.38
			c-2.22,3.86-3.27,8.1-3.67,12.48c-0.59,6.48,0.18,12.85,2.3,19c1.35,3.92,3.38,7.5,6.22,10.57c2.47,2.68,4.46,2.98,7.47,0.99
			c1.38-0.91,2.67-2.04,3.76-3.28c5.56-6.27,10.13-13.27,14.58-20.35c0.81-1.3,0.81-2.67,0.79-4.09c-0.04-4.4,0.54-8.72,1.75-12.95
			c1.07-3.73,2.56-7.28,4.82-10.45c3.26-4.59,7.69-7.08,13.38-7.19c3.21-0.06,6.07,1.02,8.61,2.89
			C191.55,182.04,192.98,183.35,194.79,184.86z M179.33,236.8c1.87-1.54,2.68-3.44,3.55-5.25c3.4-7.06,6.31-14.33,9.02-21.68
			c0.6-1.61,0.73-3.21,0.75-4.9c0.05-3.72-0.1-7.49,0.48-11.14c0.52-3.3-0.62-5.46-3.05-7.27c-1.13-0.84-2.3-1.66-3.57-2.25
			c-2.34-1.1-3.84-0.73-5.41,1.25c-0.71,0.9-1.38,1.89-1.8,2.95c-1.1,2.73-2.29,5.46-3.01,8.3c-1.83,7.26-2.51,14.68-2.11,22.16
			c0.22,4.11,0.7,8.19,2.06,12.12C176.91,233.04,177.53,235.01,179.33,236.8z M280.38,212.44c-0.3,0.36-0.54,0.52-0.6,0.73
			c-1.39,4.85-2.09,9.82-2.12,14.85c-0.02,3.08,0.24,6.18,1.34,9.12c0.82,2.21,2.01,4.18,4.03,5.51c1.25,0.82,2.52,1.01,4.02,0.45
			c2.83-1.07,4.45-3.13,4.78-6c0.29-2.54,0.41-5.16,0.11-7.68c-0.81-6.88-4.14-12.35-9.94-16.23
			C281.5,212.83,280.88,212.66,280.38,212.44z M262.77,197.94c1.57-3.95,1.98-7.93,1.3-12.02c-0.24-1.41-1.04-2.6-2.22-3.48
			c-1.59-1.17-3.25-1.41-5.01-0.41c-2.42,1.39-4.15,3.36-5.03,6.04c-1.1,3.38-0.26,5.74,2.81,7.45
			C257.09,196.91,259.76,197.68,262.77,197.94z"/>
	</g>
</g>
</svg>
